<svg width="48" height="49" viewBox="0 0 48 49" fill="none" xmlns="http://www.w3.org/2000/svg">
<path d="M24 25.099L19.8545 29.2445C19.7568 29.3422 19.6396 29.391 19.5029 29.391C19.3597 29.391 19.2393 29.3438 19.1416 29.2494C19.0472 29.1517 19 29.0313 19 28.8881C19 28.7513 19.0488 28.6342 19.1465 28.5365L23.292 24.391L19.1465 20.2455C19.0488 20.1478 19 20.029 19 19.889C19 19.8207 19.013 19.7556 19.0391 19.6937C19.0651 19.6319 19.1009 19.5798 19.1465 19.5375C19.1921 19.4919 19.2458 19.4561 19.3076 19.4301C19.3695 19.404 19.4346 19.391 19.5029 19.391C19.6396 19.391 19.7568 19.4398 19.8545 19.5375L24 23.683L28.1455 19.5375C28.2432 19.4398 28.362 19.391 28.502 19.391C28.5703 19.391 28.6338 19.404 28.6924 19.4301C28.7542 19.4561 28.8079 19.4919 28.8535 19.5375C28.8991 19.583 28.9349 19.6368 28.9609 19.6986C28.987 19.7572 29 19.8207 29 19.889C29 20.029 28.9512 20.1478 28.8535 20.2455L24.708 24.391L28.8535 28.5365C28.9512 28.6342 29 28.7513 29 28.8881C29 28.9564 28.987 29.0215 28.9609 29.0834C28.9349 29.1452 28.8991 29.1989 28.8535 29.2445C28.8112 29.2901 28.7591 29.3259 28.6973 29.3519C28.6354 29.378 28.5703 29.391 28.502 29.391C28.362 29.391 28.2432 29.3422 28.1455 29.2445L24 25.099Z" fill="black" fill-opacity="0.8956"/>
</svg>
