<svg width="48" height="49" viewBox="0 0 48 49" fill="none" xmlns="http://www.w3.org/2000/svg">
<path d="M19.498 24.391C19.4297 24.391 19.3646 24.378 19.3027 24.3519C19.2441 24.3259 19.1921 24.2901 19.1465 24.2445C19.1009 24.1989 19.0651 24.1469 19.0391 24.0883C19.013 24.0264 19 23.9613 19 23.8929C19 23.8246 19.013 23.7611 19.0391 23.7025C19.0651 23.6407 19.1009 23.587 19.1465 23.5414C19.1921 23.4926 19.2441 23.4551 19.3027 23.4291C19.3646 23.403 19.4297 23.39 19.498 23.39H28.502C28.5703 23.39 28.6338 23.403 28.6924 23.4291C28.7542 23.4551 28.8079 23.4926 28.8535 23.5414C28.8991 23.587 28.9349 23.6407 28.9609 23.7025C28.987 23.7611 29 23.8246 29 23.8929C29 23.9613 28.987 24.0264 28.9609 24.0883C28.9349 24.1469 28.8991 24.1989 28.8535 24.2445C28.8079 24.2901 28.7542 24.3259 28.6924 24.3519C28.6338 24.378 28.5703 24.391 28.502 24.391H19.498Z" fill="black" fill-opacity="0.8956"/>
</svg>
