<svg width="48" height="49" viewBox="0 0 48 49" fill="none" xmlns="http://www.w3.org/2000/svg">
<path d="M20.4746 29.391C20.2793 29.391 20.0921 29.3519 19.9131 29.2738C19.734 29.1924 19.5762 29.085 19.4395 28.9515C19.306 28.8148 19.1986 28.6569 19.1172 28.4779C19.0391 28.2989 19 28.1117 19 27.9164V20.8656C19 20.6703 19.0391 20.4831 19.1172 20.3041C19.1986 20.125 19.306 19.9688 19.4395 19.8353C19.5762 19.6986 19.734 19.5912 19.9131 19.5131C20.0921 19.4317 20.2793 19.391 20.4746 19.391H27.5254C27.7207 19.391 27.9079 19.4317 28.0869 19.5131C28.266 19.5912 28.4222 19.6986 28.5557 19.8353C28.6924 19.9688 28.7998 20.125 28.8779 20.3041C28.9593 20.4831 29 20.6703 29 20.8656V27.9164C29 28.1117 28.9593 28.2989 28.8779 28.4779C28.7998 28.6569 28.6924 28.8148 28.5557 28.9515C28.4222 29.085 28.266 29.1924 28.0869 29.2738C27.9079 29.3519 27.7207 29.391 27.5254 29.391H20.4746ZM27.501 28.39C27.5693 28.39 27.6328 28.377 27.6914 28.351C27.7533 28.3249 27.807 28.2891 27.8525 28.2435C27.8981 28.198 27.9339 28.1459 27.96 28.0873C27.986 28.0254 27.999 27.9603 27.999 27.892V20.89C27.999 20.8217 27.986 20.7582 27.96 20.6996C27.9339 20.6377 27.8981 20.584 27.8525 20.5385C27.807 20.4929 27.7533 20.4571 27.6914 20.431C27.6328 20.405 27.5693 20.392 27.501 20.392H20.499C20.4307 20.392 20.3656 20.405 20.3037 20.431C20.2451 20.4571 20.193 20.4929 20.1475 20.5385C20.1019 20.584 20.0661 20.6377 20.04 20.6996C20.014 20.7582 20.001 20.8217 20.001 20.89V27.892C20.001 27.9603 20.014 28.0254 20.04 28.0873C20.0661 28.1459 20.1019 28.198 20.1475 28.2435C20.193 28.2891 20.2451 28.3249 20.3037 28.351C20.3656 28.377 20.4307 28.39 20.499 28.39H27.501Z" fill="black" fill-opacity="0.8956"/>
</svg>
